#!OML:ASF H:\BreakDance\Project 1\Capture day 1\Session 1\Male.ASF
:FULLY-SPECIFIED
:DEGREES
125
root -3.1998 16.2985 0.100017 -48.895 -86.6208 51.4275
lowerback -9.18225 2.40005 1.08993
upperback 3.95741 3.46241 -5.38
thorax 9.84155 1.9143 -5.81637
lowerneck -3.1633 10.4559 5.39599
upperneck 11.1591 -49.5768 -4.18749
head 27.8226 -30.2413 -178.812
rclavicle 2.74323e-014 1.74931e-014
rhumerus -23.7264 -3.10483 -92.588
rradius 43.7344
rwrist 5.62591
rhand -24.1336 -35.2726
rfingers 7.12502
rthumb 2.34837 -65.2394
lclavicle 2.74323e-014 1.74931e-014
lhumerus -18.6197 -19.099 81.8574
lradius 41.5925
lwrist -2.77566
lhand -27.6522 -34.2262
lfingers 7.12502
lthumb -1.04997 -4.24901
rfemur -16.0936 2.89061 9.55389
rtibia 41.7159
rfoot -29.2608 -17.6212
rtoes -8.97989
lfemur -14.2603 -0.141468 -13.5898
ltibia 35.7
lfoot -28.649 20.8706
ltoes -35.5295
126
root -3.20489 16.2994 0.0995019 -49.1441 -86.6058 51.7156
lowerback -9.16754 2.37949 1.03459
upperback 3.94813 3.4398 -5.36385
thorax 9.81473 1.89848 -5.77106
lowerneck -3.19239 10.4557 5.3818
upperneck 11.1667 -49.5936 -4.2064
head 27.8375 -30.31 -178.803
rclavicle -1.76918e-014 -7.95139e-015
rhumerus -23.7044 -3.02193 -92.5662
rradius 43.7065
rwrist 5.61659
rhand -24.174 -35.3568
rfingers 7.12502
rthumb 2.30931 -65.324
lclavicle -1.76918e-014 -7.95139e-015
lhumerus -18.6118 -18.985 81.8893
lradius 41.6045
lwrist -2.88776
lhand -27.6927 -34.1521
lfingers 7.12502
lthumb -1.08907 -4.17513
rfemur -16.122 2.84519 9.52862
rtibia 41.7222
rfoot -29.2319 -17.6182
rtoes -8.95596
lfemur -14.2761 -0.145348 -13.6139
ltibia 35.6879
lfoot -28.6509 20.8837
ltoes -35.4524
127
root -3.21034 16.3 0.0987506 -49.2095 -86.6094 51.8154
lowerback -9.15872 2.35709 0.989356
upperback 3.93527 3.41276 -5.33508
thorax 9.78665 1.88078 -5.71827
lowerneck -3.19468 10.4535 5.37354
upperneck 11.2006 -49.6283 -4.24931
head 27.8505 -30.3892 -178.767
rclavicle 4.13472e-014 7.95139e-015
rhumerus -23.6907 -2.93343 -92.5347
rradius 43.6853
rwrist 5.65477
rhand -24.1522 -35.4958
rfingers 7.12502
rthumb 2.33032 -65.4628
lclavicle 4.13472e-014 7.95139e-015
lhumerus -18.6031 -18.8677 81.9324
lradius 41.5926
lwrist -2.96573
lhand -27.7337 -34.1005
lfingers 7.12502
lthumb -1.12871 -4.12379
rfemur -16.1418 2.82702 9.53045
rtibia 41.7237
rfoot -29.2136 -17.6276
rtoes -8.93045
lfemur -14.2854 -0.138525 -13.6117
ltibia 35.6814
lfoot -28.668 20.8714
ltoes -35.3364
128
root -3.21566 16.3003 0.09761 -49.0063 -86.6458 51.6405
lowerback -9.13977 2.34045 0.9705
upperback 3.91204 3.38902 -5.29473
thorax 9.7424 1.86584 -5.66731
lowerneck -3.16862 10.4482 5.37416
upperneck 11.2645 -49.7022 -4.31424
head 27.8717 -30.4843 -178.721
rclavicle 1.03368e-014 6.67916e-014
rhumerus -23.6999 -2.85796 -92.4956
rradius 43.6784
rwrist 5.72845
rhand -24.0654 -35.6474
rfingers 7.12502
rthumb 2.4142 -65.6135
lclavicle 1.03368e-014 6.67916e-014
lhumerus -18.6044 -18.7722 81.9866
lradius 41.5511
lwrist -2.9896
lhand -27.7598 -34.1005
lfingers 7.12502
lthumb -1.15392 -4.12383
rfemur -16.1543 2.85813 9.57752
rtibia 41.7168
rfoot -29.2087 -17.6589
rtoes -8.86007
lfemur -14.2935 -0.119895 -13.5667
ltibia 35.6852
lfoot -28.6933 20.8501
ltoes -35.2466
129
root -3.22058 16.3008 0.0961654 -48.5604 -86.715 51.2183
lowerback -9.0965 2.33932 0.993101
upperback 3.87461 3.38035 -5.25769
thorax 9.67291 1.86062 -5.64135
lowerneck -3.11954 10.4374 5.39605
upperneck 11.3462 -49.8173 -4.3831
head 27.9035 -30.588 -178.688
rclavicle 5.96354e-015 2.22639e-014
rhumerus -23.732 -2.82654 -92.4631
rradius 43.6776
rwrist 5.82129
rhand -23.9483 -35.7528
rfingers 7.12502
rthumb 2.52725 -65.7176
lclavicle 5.96354e-015 2.22639e-014
lhumerus -18.6266 -18.7348 82.0356
lradius 41.4984
lwrist -2.96483
lhand -27.769 -34.1523
lfingers 7.12502
lthumb -1.16284 -4.1757
rfemur -16.1625 2.93391 9.6683
rtibia 41.7018
rfoot -29.2135 -17.7147
rtoes -8.78454
lfemur -14.3086 -0.0946332 -13.4819
ltibia 35.6996
lfoot -28.7123 20.8457
ltoes -35.2425
130
root -3.22508 16.3013 0.0947179 -48.0749 -86.7988 50.7531
lowerback -9.03506 2.35931 1.05342
upperback 3.83015 3.39625 -5.24111
thorax 9.59198 1.87025 -5.65544
lowerneck -3.06019 10.4188 5.44488
upperneck 11.4287 -49.9619 -4.4378
head 27.9417 -30.6842 -178.681
rclavicle -4.31363e-014 3.02153e-014
rhumerus -23.7704 -2.85916 -92.4485
rradius 43.6691
rwrist 5.91834
rhand -23.8417 -35.77
rfingers 7.12502
rthumb 2.63028 -65.7335
lclavicle -4.31363e-014 3.02153e-014
lhumerus -18.6658 -18.7757 82.0629
lradius 41.46
lwrist -2.90855
lhand -27.765 -34.2392
lfingers 7.12502
lthumb -1.15891 -4.26258
rfemur -16.1678 3.03396 9.77459
rtibia 41.6819
rfoot -29.225 -17.781
rtoes -8.73554
lfemur -14.3259 -0.0664493 -13.3843
ltibia 35.7214
lfoot -28.7302 20.8594
ltoes -35.3102
131
root -3.22932 16.3016 0.0935134 -47.7127 -86.8787 50.4098
lowerback -8.97389 2.39876 1.13963
upperback 3.7938 3.43729 -5.25239
thorax 9.52721 1.89492 -5.71073
lowerneck -3.01498 10.3948 5.51271
upperneck 11.4857 -50.1058 -4.4574
head 27.98 -30.751 -178.71
rclavicle -3.08116e-014 -2.22639e-014
rhumerus -23.7895 -2.95327 -92.4569
rradius 43.6493
rwrist 5.98913
rhand -23.7774 -35.7032
rfingers 7.12502
rthumb 2.69234 -65.666
lclavicle -3.08116e-014 -2.22639e-014
lhumerus -18.694 -18.8919 82.0544
lradius 41.4464
lwrist -2.84184
lhand -27.7511 -34.3411
lfingers 7.12502
lthumb -1.14551 -4.36447
rfemur -16.1726 3.13846 9.87076
rtibia 41.6617
rfoot -29.2394 -17.8443
rtoes -8.68978
lfemur -14.3398 -0.0379806 -13.298
ltibia 35.7447
lfoot -28.7556 20.8767
ltoes -35.3786
132
root -3.23375 16.3018 0.0928417 -47.6118 -86.9332 50.3261
lowerback -8.93377 2.45514 1.24247
upperback 3.783 3.50267 -5.30017
thorax 9.51034 1.9346 -5.81135
lowerneck -3.00938 10.365 5.59995
upperneck 11.4849 -50.2045 -4.41617
head 28.0009 -30.7569 -178.773
rclavicle -7.35503e-015 4.29375e-014
rhumerus -23.7651 -3.11186 -92.4961
rradius 43.6209
rwrist 6.03103
rhand -23.7707 -35.5995
rfingers 7.12502
rthumb 2.69883 -65.5622
lclavicle -7.35503e-015 4.29375e-014
lhumerus -18.6722 -19.0908 81.9915
lradius 41.4631
lwrist -2.79329
lhand -27.7501 -34.4169
lfingers 7.12502
lthumb -1.14456 -4.4402
rfemur -16.1738 3.22114 9.93047
rtibia 41.6458
rfoot -29.2541 -17.8915
rtoes -8.64071
lfemur -14.3463 -0.0172195 -13.2471
ltibia 35.7629
lfoot -28.7891 20.8916
ltoes -35.3961
133
root -3.23893 16.3018 0.0929362 -47.7873 -86.9471 50.5147
lowerback -8.92896 2.51376 1.33609
upperback 3.80293 3.57531 -5.37195
thorax 9.55093 1.97923 -5.93155
lowerneck -3.04554 10.3354 5.69166
upperneck 11.4209 -50.2229 -4.31876
head 27.9918 -30.6925 -178.85
rclavicle -1.55052e-014 4.45278e-014
rhumerus -23.7084 -3.29269 -92.553
rradius 43.5988
rwrist 6.05143
rhand -23.8104 -35.5036
rfingers 7.12502
rthumb 2.66051 -65.4667
lclavicle -1.55052e-014 4.45278e-014
lhumerus -18.5999 -19.3337 81.889
lradius 41.504
lwrist -2.77397
lhand -27.7734 -34.4473
lfingers 7.12502
lthumb -1.16709 -4.47075
rfemur -16.1653 3.25989 9.93843
rtibia 41.637
rfoot -29.271 -17.9123
rtoes -8.60615
lfemur -14.3396 -0.00894331 -13.2445
ltibia 35.7713
lfoot -28.8299 20.8988
ltoes -35.3623
134
root -3.245 16.3014 0.0937044 -48.1074 -86.9231 50.8416
lowerback -8.96281 2.55982 1.39937
upperback 3.85342 3.63638 -5.44421
thorax 9.64508 2.01759 -6.03653
lowerneck -3.11741 10.3137 5.7636
upperneck 11.3094 -50.1577 -4.18971
head 27.9578 -30.5811 -178.926
rclavicle 3.37934e-014 -2.54444e-014
rhumerus -23.6309 -3.43951 -92.606
rradius 43.5927
rwrist 6.04519
rhand -23.8899 -35.4197
rfingers 7.12502
rthumb 2.58366 -65.3838
lclavicle 3.37934e-014 -2.54444e-014
lhumerus -18.4848 -19.5575 81.7777
lradius 41.5511
lwrist -2.78245
lhand -27.8083 -34.4398
lfingers 7.12502
lthumb -1.20076 -4.46346
rfemur -16.1438 3.25555 9.90337
rtibia 41.6356
rfoot -29.2899 -17.9124
rtoes -8.59567
lfemur -14.3168 -0.012844 -13.2815
ltibia 35.7685
lfoot -28.8718 20.8947
ltoes -35.2984
135
root -3.25164 16.3007 0.0948617 -48.524 -86.8719 51.2594
lowerback -9.02859 2.58766 1.4194
upperback 3.92679 3.67853 -5.50084
thorax 9.77701 2.04438 -6.10246
lowerneck -3.21194 10.3008 5.8043
upperneck 11.1741 -50.0252 -4.05659
head 27.9053 -30.4523 -178.984
rclavicle -5.96354e-015 -2.70347e-014
rhumerus -23.545 -3.52478 -92.6397
rradius 43.6024
rwrist 6.02693
rhand -23.9956 -35.3514
rfingers 7.12502
rthumb 2.48159 -65.3167
lclavicle -5.96354e-015 -2.70347e-014
lhumerus -18.3358 -19.7222 81.6826
lradius 41.5885
lwrist -2.81675
lhand -27.847 -34.4007
lfingers 7.12502
lthumb -1.23816 -4.42454
rfemur -16.1119 3.22644 9.83815
rtibia 41.6399
rfoot -29.3105 -17.9012
rtoes -8.60554
lfemur -14.2799 -0.0295951 -13.3465
ltibia 35.7556
lfoot -28.9151 20.8834
ltoes -35.2219
136
root -3.25845 16.2999 0.0961835 -49.0086 -86.8053 51.7438
lowerback -9.11637 2.59569 1.39124
upperback 4.00996 3.69915 -5.53335
thorax 9.9248 2.05707 -6.11763
lowerneck -3.3134 10.2935 5.81229
upperneck 11.0465 -49.8656 -3.94879
head 27.8466 -30.3413 -179.008
rclavicle -1.68967e-014 7.95139e-015
rhumerus -23.4683 -3.54331 -92.6479
rradius 43.6284
rwrist 6.01292
rhand -24.0997 -35.3047
rfingers 7.12502
rthumb 2.38111 -65.2712
lclavicle -1.68967e-014 7.95139e-015
lhumerus -18.1701 -19.8104 81.6197
lradius 41.6011
lwrist -2.85865
lhand -27.8753 -34.3473
lfingers 7.12502
lthumb -1.26552 -4.37127
rfemur -16.0783 3.18991 9.75535
rtibia 41.6482
rfoot -29.3302 -17.8884
rtoes -8.63511
lfemur -14.2389 -0.0563576 -13.4279
ltibia 35.7357
lfoot -28.9508 20.878
ltoes -35.1726
137
root -3.2651 16.2993 0.0974384 -49.4874 -86.7338 52.2259
lowerback -9.20157 2.58798 1.32956
upperback 4.08259 3.70133 -5.5482
thorax 10.0532 2.05735 -6.09737
lowerneck -3.39921 10.2876 5.80198
upperneck 10.9556 -49.7308 -3.8853
head 27.7974 -30.2809 -179.001
rclavicle 4.01545e-014 -7.95139e-015
rhumerus -23.4184 -3.51771 -92.6404
rradius 43.6596
rwrist 6.0096
rhand -24.1924 -35.2431
rfingers 7.12502
rthumb 2.29158 -65.2105
lclavicle 4.01545e-014 -7.95139e-015
lhumerus -18.0214 -19.8317 81.5863
lradius 41.5945
lwrist -2.898
lhand -27.8723 -34.2936
lfingers 7.12502
lthumb -1.26254 -4.31756
rfemur -16.0508 3.15749 9.66893
rtibia 41.6594
rfoot -29.348 -17.8872
rtoes -8.69634
lfemur -14.2057 -0.0833165 -13.5134
ltibia 35.7118
lfoot -28.9607 20.8889
ltoes -35.1958
138
root -3.27127 16.2988 0.0983424 -49.9383 -86.6658 52.6871
lowerback -9.276 2.56428 1.23808
upperback 4.13911 3.68382 -5.54347
thorax 10.151 2.04448 -6.04203
lowerneck -3.4645 10.2865 5.77401
upperneck 10.8968 -49.6074 -3.86118
head 27.7523 -30.2555 -178.96
rclavicle -6.36111e-015 3.49861e-014
rhumerus -23.389 -3.44829 -92.6186
rradius 43.6811
rwrist 6.02266
rhand -24.2648 -35.152
rfingers 7.12502
rthumb 2.2216 -65.1202
lclavicle -6.36111e-015 3.49861e-014
lhumerus -17.9047 -19.7781 81.5802
lradius 41.5836
lwrist -2.93436
lhand -27.8307 -34.2451
lfingers 7.12502
lthumb -1.22237 -4.2689
rfemur -16.0338 3.14093 9.58942
rtibia 41.6723
rfoot -29.3712 -17.9006
rtoes -8.76231
lfemur -14.183 -0.100941 -13.594
ltibia 35.6865
lfoot -28.9523 20.9075
ltoes -35.2753
